<svg xmlns="http://www.w3.org/2000/svg" viewBox="0 0 27.52 27.52"><g id="Layer_2" data-name="Layer 2"><g id="ELEMENTS"><path d="M21.05,4.91a1.62,1.62,0,1,0,0,3.23,1.62,1.62,0,0,0,0-3.23Z"/><path d="M13.87,7a6.78,6.78,0,1,0,6.78,6.78A6.78,6.78,0,0,0,13.87,7Zm0,11.12a4.34,4.34,0,1,1,4.34-4.34A4.35,4.35,0,0,1,13.87,18.1Z"/><path d="M19.25,27.52h-11A8.28,8.28,0,0,1,0,19.25v-11A8.28,8.28,0,0,1,8.27,0h11a8.28,8.28,0,0,1,8.27,8.27v11A8.28,8.28,0,0,1,19.25,27.52ZM8.27,2.59A5.69,5.69,0,0,0,2.59,8.27v11a5.69,5.69,0,0,0,5.68,5.68h11a5.69,5.69,0,0,0,5.68-5.68v-11a5.69,5.69,0,0,0-5.68-5.68Z"/></g></g></svg>